<?xml version="1.0" encoding="UTF-8"?>
<svg width="138px" height="164px" viewBox="0 0 138 164" version="1.1" xmlns="http://www.w3.org/2000/svg" xmlns:xlink="http://www.w3.org/1999/xlink">
    <!-- Generator: Sketch 48.2 (47327) - http://www.bohemiancoding.com/sketch -->
    <title>Logo</title>
    <defs></defs>
    <g id="Desktop" stroke="none" stroke-width="1" fill="none" fill-rule="evenodd" transform="translate(-443.000000, 0.000000)">
        <g id="Logo" transform="translate(443.000000, 0.000000)">
            <path d="M0,0 L138,0 L138,116.900794 L74.7768961,161.443407 C71.3236142,163.87635 66.7140241,163.876948 63.2601105,161.444902 L0,116.900794 L0,0 Z" id="Rectangle" fill="#5F27CD"></path>
            <path d="M50.982,50.548 C50.7906657,50.548 50.462669,50.3976682 49.998,50.097 L37.206,41.282 C36.7686645,41.0086653 36.4611676,40.7285014 36.2835,40.4415 C36.1058324,40.1544986 36.017,39.8196686 36.017,39.437 L36.017,38.74 C36.017,38.3573314 36.1058324,38.0225014 36.2835,37.7355 C36.4611676,37.4484986 36.7686645,37.1546682 37.206,36.854 L49.998,28.039 C50.0526669,28.0116665 50.1893322,27.9365006 50.408,27.8135 C50.6266678,27.6904994 50.8179992,27.629 50.982,27.629 C51.2280012,27.629 51.4329992,27.7041659 51.597,27.8545 C51.7610008,28.0048341 51.843,28.2029988 51.843,28.449 L51.843,30.13 C51.843,30.4306682 51.7678341,30.6766657 51.6175,30.868 C51.4671659,31.0593343 51.2280016,31.2643322 50.9,31.483 L39.83,39.068 L50.9,46.653 C51.2553351,46.8990012 51.5013327,47.1176657 51.638,47.309 C51.7746674,47.5003343 51.843,47.7326653 51.843,48.006 L51.843,49.687 C51.843,49.9603347 51.7610008,50.1721659 51.597,50.3225 C51.4329992,50.4728341 51.2280012,50.548 50.982,50.548 Z M66.603,56.944 C66.3843322,56.944 66.1930008,56.8620008 66.029,56.698 C65.8649992,56.5339992 65.783,56.3426678 65.783,56.124 C65.783,56.0146661 65.8239996,55.8506678 65.906,55.632 L79.928,21.971 C80.1740012,21.506331 80.529331,21.274 80.994,21.274 L82.511,21.274 C82.7296678,21.274 82.9209992,21.3559992 83.085,21.52 C83.2490008,21.6840008 83.331,21.8753322 83.331,22.094 C83.331,22.2033339 83.2900004,22.3673322 83.208,22.586 L69.145,56.247 C69.0903331,56.4110008 68.9741676,56.5681659 68.7965,56.7185 C68.6188324,56.8688341 68.3796682,56.944 68.079,56.944 L66.603,56.944 Z M87.964,50.548 C87.7453322,50.548 87.5540008,50.4660008 87.39,50.302 C87.2259992,50.1379992 87.144,49.9330012 87.144,49.687 L87.144,48.006 C87.144,47.7326653 87.2123326,47.5003343 87.349,47.309 C87.4856673,47.1176657 87.7316649,46.8990012 88.087,46.653 L99.157,39.068 L88.087,31.483 C87.7589984,31.2643322 87.5198341,31.0593343 87.3695,30.868 C87.2191659,30.6766657 87.144,30.4306682 87.144,30.13 L87.144,28.449 C87.144,28.2029988 87.2191659,28.0048341 87.3695,27.8545 C87.5198341,27.7041659 87.7179988,27.629 87.964,27.629 C88.1280008,27.629 88.3261655,27.6904994 88.5585,27.8135 C88.7908345,27.9365006 88.9343331,28.0116665 88.989,28.039 L101.781,36.854 C102.218336,37.1546682 102.525832,37.4484986 102.7035,37.7355 C102.881168,38.0225014 102.97,38.3573314 102.97,38.74 L102.97,39.437 C102.97,39.8196686 102.881168,40.1544986 102.7035,40.4415 C102.525832,40.7285014 102.218336,41.0086653 101.781,41.282 L88.989,50.097 C88.5516645,50.3976682 88.2100012,50.548 87.964,50.548 Z" id="&lt;-/&gt;" fill="#FFFFFF"></path>
            <path d="M27.091,88 C26.9176658,88 26.7746672,87.9436672 26.662,87.831 C26.5493328,87.7183328 26.493,87.5753342 26.493,87.402 L26.493,72.036 L21.475,72.036 C21.3016658,72.036 21.1586672,71.9796672 21.046,71.867 C20.9333328,71.7543328 20.877,71.6113342 20.877,71.438 L20.877,70.424 C20.877,70.2333324 20.9333328,70.0816672 21.046,69.969 C21.1586672,69.8563328 21.3016658,69.8 21.475,69.8 L33.955,69.8 C34.1456676,69.8 34.2929995,69.8563328 34.397,69.969 C34.5010005,70.0816672 34.553,70.2333324 34.553,70.424 L34.553,71.438 C34.553,71.6113342 34.4966672,71.7543328 34.384,71.867 C34.2713328,71.9796672 34.1283342,72.036 33.955,72.036 L28.963,72.036 L28.963,87.402 C28.963,87.5753342 28.9023339,87.7183328 28.781,87.831 C28.6596661,87.9436672 28.5123342,88 28.339,88 L27.091,88 Z M37.283,88 C37.1096658,88 36.9666672,87.9436672 36.854,87.831 C36.7413328,87.7183328 36.685,87.5753342 36.685,87.402 L36.685,70.138 C36.685,69.9473324 36.7413328,69.8000005 36.854,69.696 C36.9666672,69.5919995 37.1096658,69.54 37.283,69.54 L38.479,69.54 C38.6696676,69.54 38.8169995,69.5919995 38.921,69.696 C39.0250005,69.8000005 39.077,69.9473324 39.077,70.138 L39.077,76.196 C39.5796692,75.5546635 40.1733299,75.0650017 40.858,74.727 C41.5426701,74.3889983 42.3876616,74.22 43.393,74.22 C45.0570083,74.22 46.352662,74.7529947 47.28,75.819 C48.207338,76.8850053 48.671,78.2933246 48.671,80.044 L48.671,87.402 C48.671,87.5753342 48.6146672,87.7183328 48.502,87.831 C48.3893328,87.9436672 48.2463342,88 48.073,88 L46.851,88 C46.6776658,88 46.5346672,87.9436672 46.422,87.831 C46.3093328,87.7183328 46.253,87.5753342 46.253,87.402 L46.253,80.2 C46.253,78.9519938 45.9496697,77.9813368 45.343,77.288 C44.7363303,76.5946632 43.8610057,76.248 42.717,76.248 C41.6076611,76.248 40.72367,76.5989965 40.065,77.301 C39.40633,78.0030035 39.077,78.9693272 39.077,80.2 L39.077,87.402 C39.077,87.5753342 39.0206672,87.7183328 38.908,87.831 C38.7953328,87.9436672 38.6523342,88 38.479,88 L37.283,88 Z M53.039,88 C52.8656658,88 52.7226672,87.9436672 52.61,87.831 C52.4973328,87.7183328 52.441,87.5753342 52.441,87.402 L52.441,75.104 C52.441,74.9306658 52.4973328,74.7833339 52.61,74.662 C52.7226672,74.5406661 52.8656658,74.48 53.039,74.48 L54.131,74.48 C54.3216676,74.48 54.4733328,74.5363328 54.586,74.649 C54.6986672,74.7616672 54.755,74.9133324 54.755,75.104 L54.755,76.248 C55.4656702,75.0693274 56.6703248,74.48 58.369,74.48 L59.383,74.48 C59.5736676,74.48 59.7209995,74.5319995 59.825,74.636 C59.9290005,74.7400005 59.981,74.8873324 59.981,75.078 L59.981,76.04 C59.981,76.2133342 59.9290005,76.3563328 59.825,76.469 C59.7209995,76.5816672 59.5736676,76.638 59.383,76.638 L57.901,76.638 C56.9476619,76.638 56.1980027,76.9153306 55.652,77.47 C55.1059973,78.0246694 54.833,78.7786619 54.833,79.732 L54.833,87.402 C54.833,87.5753342 54.7723339,87.7183328 54.651,87.831 C54.5296661,87.9436672 54.3823342,88 54.209,88 L53.039,88 Z M62.607,71.932 C62.4336658,71.932 62.2906672,71.8756672 62.178,71.763 C62.0653328,71.6503328 62.009,71.5073342 62.009,71.334 L62.009,69.982 C62.009,69.8086658 62.0653328,69.6613339 62.178,69.54 C62.2906672,69.4186661 62.4336658,69.358 62.607,69.358 L64.141,69.358 C64.3143342,69.358 64.4616661,69.4186661 64.583,69.54 C64.7043339,69.6613339 64.765,69.8086658 64.765,69.982 L64.765,71.334 C64.765,71.5073342 64.7043339,71.6503328 64.583,71.763 C64.4616661,71.8756672 64.3143342,71.932 64.141,71.932 L62.607,71.932 Z M62.815,88 C62.6416658,88 62.4986672,87.9436672 62.386,87.831 C62.2733328,87.7183328 62.217,87.5753342 62.217,87.402 L62.217,75.078 C62.217,74.9046658 62.2733328,74.7616672 62.386,74.649 C62.4986672,74.5363328 62.6416658,74.48 62.815,74.48 L63.959,74.48 C64.1323342,74.48 64.2753328,74.5363328 64.388,74.649 C64.5006672,74.7616672 64.557,74.9046658 64.557,75.078 L64.557,87.402 C64.557,87.5753342 64.5006672,87.7183328 64.388,87.831 C64.2753328,87.9436672 64.1323342,88 63.959,88 L62.815,88 Z M73.163,88 C72.7123311,88 72.3916676,87.7833355 72.201,87.35 L67.365,75.286 C67.3476666,75.2339997 67.339,75.1473339 67.339,75.026 C67.339,74.8699992 67.3909995,74.7400005 67.495,74.636 C67.5990005,74.5319995 67.7203326,74.48 67.859,74.48 L69.055,74.48 C69.3323347,74.48 69.5403326,74.6186653 69.679,74.896 L73.683,85.27 L77.687,74.896 C77.7216668,74.7919995 77.7953328,74.6966671 77.908,74.61 C78.0206672,74.5233329 78.1549992,74.48 78.311,74.48 L79.507,74.48 C79.6456674,74.48 79.7669995,74.5319995 79.871,74.636 C79.9750005,74.7400005 80.027,74.8699992 80.027,75.026 L79.975,75.286 L75.165,87.35 C74.9743324,87.7833355 74.6536689,88 74.203,88 L73.163,88 Z M83.199,71.932 C83.0256658,71.932 82.8826672,71.8756672 82.77,71.763 C82.6573328,71.6503328 82.601,71.5073342 82.601,71.334 L82.601,69.982 C82.601,69.8086658 82.6573328,69.6613339 82.77,69.54 C82.8826672,69.4186661 83.0256658,69.358 83.199,69.358 L84.733,69.358 C84.9063342,69.358 85.0536661,69.4186661 85.175,69.54 C85.2963339,69.6613339 85.357,69.8086658 85.357,69.982 L85.357,71.334 C85.357,71.5073342 85.2963339,71.6503328 85.175,71.763 C85.0536661,71.8756672 84.9063342,71.932 84.733,71.932 L83.199,71.932 Z M83.407,88 C83.2336658,88 83.0906672,87.9436672 82.978,87.831 C82.8653328,87.7183328 82.809,87.5753342 82.809,87.402 L82.809,75.078 C82.809,74.9046658 82.8653328,74.7616672 82.978,74.649 C83.0906672,74.5363328 83.2336658,74.48 83.407,74.48 L84.551,74.48 C84.7243342,74.48 84.8673328,74.5363328 84.98,74.649 C85.0926672,74.7616672 85.149,74.9046658 85.149,75.078 L85.149,87.402 C85.149,87.5753342 85.0926672,87.7183328 84.98,87.831 C84.8673328,87.9436672 84.7243342,88 84.551,88 L83.407,88 Z M89.647,88 C89.4736658,88 89.3306672,87.9436672 89.218,87.831 C89.1053328,87.7183328 89.049,87.5753342 89.049,87.402 L89.049,75.078 C89.049,74.9046658 89.1053328,74.7616672 89.218,74.649 C89.3306672,74.5363328 89.4736658,74.48 89.647,74.48 L90.765,74.48 C90.9556676,74.48 91.1029995,74.5319995 91.207,74.636 C91.3110005,74.7400005 91.363,74.8873324 91.363,75.078 L91.363,76.222 C91.8830026,75.5806635 92.4853299,75.0866684 93.17,74.74 C93.8546701,74.3933316 94.7083282,74.22 95.731,74.22 C97.3950083,74.22 98.6863287,74.7529947 99.605,75.819 C100.523671,76.8850053 100.983,78.2933246 100.983,80.044 L100.983,87.402 C100.983,87.5753342 100.926667,87.7183328 100.814,87.831 C100.701333,87.9436672 100.558334,88 100.385,88 L99.189,88 C99.0156658,88 98.8726672,87.9436672 98.76,87.831 C98.6473328,87.7183328 98.591,87.5753342 98.591,87.402 L98.591,80.2 C98.591,78.9519938 98.2876697,77.9813368 97.681,77.288 C97.0743303,76.5946632 96.2076723,76.248 95.081,76.248 C93.9716611,76.248 93.08767,76.5989965 92.429,77.301 C91.77033,78.0030035 91.441,78.9693272 91.441,80.2 L91.441,87.402 C91.441,87.5753342 91.3846672,87.7183328 91.272,87.831 C91.1593328,87.9436672 91.0163342,88 90.843,88 L89.647,88 Z M110.239,93.72 C108.800326,93.72 107.647671,93.4773358 106.781,92.992 C105.914329,92.5066642 105.303335,91.9520031 104.948,91.328 C104.592665,90.7039969 104.415,90.1666689 104.415,89.716 C104.415,89.5599992 104.475666,89.4256672 104.597,89.313 C104.718334,89.2003328 104.856999,89.144 105.013,89.144 L106.157,89.144 C106.313001,89.144 106.442999,89.1829996 106.547,89.261 C106.651001,89.3390004 106.737666,89.481999 106.807,89.69 C107.292336,91.0766736 108.392991,91.77 110.109,91.77 C111.409007,91.77 112.370997,91.4926694 112.995,90.938 C113.619003,90.3833306 113.931,89.404007 113.931,88 L113.931,86.206 C112.925662,87.4886731 111.521676,88.13 109.719,88.13 C107.881657,88.13 106.508005,87.5406726 105.598,86.362 C104.687995,85.1833274 104.207,83.6926757 104.155,81.89 L104.129,81.162 L104.155,80.46 C104.207,78.6746577 104.687995,77.1883393 105.598,76.001 C106.508005,74.8136607 107.881657,74.22 109.719,74.22 C111.539009,74.22 112.960328,74.8873267 113.983,76.222 L113.983,75.104 C113.983,74.9306658 114.039333,74.7833339 114.152,74.662 C114.264667,74.5406661 114.407666,74.48 114.581,74.48 L115.699,74.48 C115.872334,74.48 116.015333,74.5406661 116.128,74.662 C116.240667,74.7833339 116.297,74.9306658 116.297,75.104 L116.297,87.714 C116.297,91.71802 114.277687,93.72 110.239,93.72 Z M110.187,86.102 C111.400339,86.102 112.314664,85.7076706 112.93,84.919 C113.545336,84.1303294 113.879,83.1813389 113.931,82.072 C113.948333,81.9159992 113.957,81.6126689 113.957,81.162 C113.957,80.7286645 113.948333,80.4340008 113.931,80.278 C113.879,79.1686611 113.545336,78.2196706 112.93,77.431 C112.314664,76.6423294 111.400339,76.248 110.187,76.248 C108.938994,76.248 108.033336,76.6423294 107.47,77.431 C106.906664,78.2196706 106.599,79.2379938 106.547,80.486 L106.521,81.162 L106.547,81.864 C106.599,83.1120062 106.906664,84.1303294 107.47,84.919 C108.033336,85.7076706 108.938994,86.102 110.187,86.102 Z M42.561,119 C42.3876658,119 42.2490005,118.943667 42.145,118.831 C42.0409995,118.718333 41.989,118.575334 41.989,118.402 L41.989,101.424 C41.989,101.233332 42.0409995,101.081667 42.145,100.969 C42.2490005,100.856333 42.3876658,100.8 42.561,100.8 L48.437,100.8 C51.0543464,100.8 52.9436609,101.384994 54.105,102.555 C55.2663391,103.725006 55.8643332,105.488655 55.899,107.846 C55.9163334,108.348669 55.925,109.024662 55.925,109.874 C55.925,110.723338 55.9163334,111.407997 55.899,111.928 C55.8643332,113.574675 55.6000025,114.913662 55.106,115.945 C54.6119975,116.976338 53.8363386,117.743331 52.779,118.246 C51.7216614,118.748669 50.3176754,119 48.567,119 L42.561,119 Z M48.437,116.842 C49.6503394,116.842 50.6166631,116.673002 51.336,116.335 C52.0553369,115.996998 52.5753317,115.468337 52.896,114.749 C53.2166683,114.029663 53.3943332,113.054673 53.429,111.824 C53.4636668,110.783995 53.481,110.134001 53.481,109.874 C53.481,109.596665 53.4636668,108.955338 53.429,107.95 C53.3943332,106.216658 52.9826706,104.947004 52.194,104.141 C51.4053294,103.334996 50.1096757,102.932 48.307,102.932 L44.433,102.932 L44.433,116.842 L48.437,116.842 Z M64.895,119.26 C63.1269912,119.26 61.7143386,118.709672 60.657,117.609 C59.5996614,116.508328 59.0190005,115.004676 58.915,113.098 L58.889,112.214 L58.915,111.356 C59.0190005,109.483991 59.5996614,107.993339 60.657,106.884 C61.7143386,105.774661 63.1269912,105.22 64.895,105.22 C66.8016762,105.22 68.2793281,105.826661 69.328,107.04 C70.3766719,108.253339 70.901,109.89999 70.901,111.98 L70.901,112.448 C70.901,112.621334 70.8446672,112.764333 70.732,112.877 C70.6193328,112.989667 70.4763342,113.046 70.303,113.046 L61.281,113.046 L61.281,113.28 C61.3330003,114.406672 61.6796635,115.368663 62.321,116.166 C62.9623365,116.963337 63.8116614,117.362 64.869,117.362 C65.6836707,117.362 66.3466641,117.201668 66.858,116.881 C67.3693359,116.560332 67.7549987,116.226668 68.015,115.88 C68.1710008,115.671999 68.2923329,115.546334 68.379,115.503 C68.4656671,115.459666 68.612999,115.438 68.821,115.438 L69.965,115.438 C70.1210008,115.438 70.2553328,115.481333 70.368,115.568 C70.4806672,115.654667 70.537,115.767333 70.537,115.906 C70.537,116.287335 70.3030023,116.746664 69.835,117.284 C69.3669977,117.821336 68.7040043,118.284998 67.846,118.675 C66.9879957,119.065002 66.0043389,119.26 64.895,119.26 Z M68.535,111.278 L68.535,111.2 C68.535,109.986661 68.20567,108.99867 67.547,108.236 C66.88833,107.47333 66.0043389,107.092 64.895,107.092 C63.7683277,107.092 62.8843365,107.47333 62.243,108.236 C61.6016635,108.99867 61.281,109.986661 61.281,111.2 L61.281,111.278 L68.535,111.278 Z M78.311,119 C77.8603311,119 77.5396676,118.783335 77.349,118.35 L72.513,106.286 C72.4956666,106.234 72.487,106.147334 72.487,106.026 C72.487,105.869999 72.5389995,105.740001 72.643,105.636 C72.7470005,105.531999 72.8683326,105.48 73.007,105.48 L74.203,105.48 C74.4803347,105.48 74.6883326,105.618665 74.827,105.896 L78.831,116.27 L82.835,105.896 C82.8696668,105.791999 82.9433328,105.696667 83.056,105.61 C83.1686672,105.523333 83.3029992,105.48 83.459,105.48 L84.655,105.48 C84.7936674,105.48 84.9149995,105.531999 85.019,105.636 C85.1230005,105.740001 85.175,105.869999 85.175,106.026 L85.123,106.286 L80.313,118.35 C80.1223324,118.783335 79.8016689,119 79.351,119 L78.311,119 Z M92.169,119.26 C90.972994,119.26 89.9633375,119.065002 89.14,118.675 C88.3166626,118.284998 87.7056687,117.838669 87.307,117.336 C86.9083313,116.833331 86.709,116.417335 86.709,116.088 C86.709,115.914666 86.7696661,115.780334 86.891,115.685 C87.0123339,115.589666 87.1423326,115.542 87.281,115.542 L88.373,115.542 C88.4770005,115.542 88.559333,115.559333 88.62,115.594 C88.680667,115.628667 88.7629995,115.706666 88.867,115.828 C89.2656687,116.313336 89.7119975,116.694665 90.206,116.972 C90.7000025,117.249335 91.3629958,117.388 92.195,117.388 C93.1310047,117.388 93.8806639,117.214668 94.444,116.868 C95.0073362,116.521332 95.289,116.01867 95.289,115.36 C95.289,114.926665 95.1676679,114.580001 94.925,114.32 C94.6823321,114.059999 94.2793362,113.826001 93.716,113.618 C93.1526639,113.409999 92.3163389,113.184668 91.207,112.942 C89.6989925,112.612665 88.6330031,112.136003 88.009,111.512 C87.3849969,110.887997 87.073,110.082005 87.073,109.094 C87.073,108.452663 87.2636648,107.833003 87.645,107.235 C88.0263352,106.636997 88.5939962,106.151669 89.348,105.779 C90.1020038,105.406331 90.9989948,105.22 92.039,105.22 C93.1310055,105.22 94.0626628,105.401998 94.834,105.766 C95.6053372,106.130002 96.1859981,106.554664 96.576,107.04 C96.966002,107.525336 97.161,107.932665 97.161,108.262 C97.161,108.418001 97.1046672,108.547999 96.992,108.652 C96.8793328,108.756001 96.7450008,108.808 96.589,108.808 L95.601,108.808 C95.3583321,108.808 95.1850005,108.712668 95.081,108.522 C94.7863319,108.192665 94.5393343,107.937001 94.34,107.755 C94.1406657,107.572999 93.8503352,107.417001 93.469,107.287 C93.0876648,107.156999 92.6110029,107.092 92.039,107.092 C91.1896624,107.092 90.5396689,107.269665 90.089,107.625 C89.6383311,107.980335 89.413,108.452664 89.413,109.042 C89.413,109.406002 89.5083324,109.713665 89.699,109.965 C89.8896676,110.216335 90.253664,110.450332 90.791,110.667 C91.328336,110.883668 92.1256614,111.104666 93.183,111.33 C94.8296749,111.676668 95.9953299,112.170663 96.68,112.812 C97.3646701,113.453337 97.707,114.276662 97.707,115.282 C97.707,116.027337 97.4946688,116.70333 97.07,117.31 C96.6453312,117.91667 96.0126709,118.393332 95.172,118.74 C94.3313291,119.086668 93.3303391,119.26 92.169,119.26 Z" id="Thriving-Devs" fill="#FFFFFF"></path>
        </g>
    </g>
</svg>
